<svg width="2233" height="1021" xmlns="http://www.w3.org/2000/svg" xmlns:xlink="http://www.w3.org/1999/xlink" xml:space="preserve" overflow="hidden"><g transform="translate(-230 -464)"><path d="M833.5 469.5 833.5 1228.99" stroke="#4472C4" stroke-width="20.625" stroke-miterlimit="8" fill="none" fill-rule="evenodd"/><path d="M1897.5 464.5 1897.5 1223.99" stroke="#4472C4" stroke-width="20.625" stroke-miterlimit="8" fill="none" fill-rule="evenodd"/><path d="M427.5 809.188 510 809.188 510 829.812 427.5 829.812ZM571.875 809.188 592.5 809.188 592.5 829.812 571.875 829.812ZM654.375 809.188 736.875 809.188 736.875 829.813 654.375 829.813ZM798.75 809.188 819.375 809.188 819.375 829.813 798.75 829.813ZM881.25 809.188 963.75 809.188 963.75 829.813 881.25 829.813ZM1025.63 809.188 1046.25 809.188 1046.25 829.813 1025.63 829.813ZM1108.13 809.188 1190.63 809.188 1190.63 829.813 1108.13 829.813ZM1252.5 809.188 1273.13 809.188 1273.13 829.813 1252.5 829.813ZM1335 809.188 1417.5 809.188 1417.5 829.813 1335 829.813ZM1479.38 809.188 1500 809.188 1500 829.813 1479.38 829.813ZM1561.88 809.188 1644.38 809.188 1644.38 829.813 1561.88 829.813ZM1706.25 809.188 1726.88 809.188 1726.88 829.813 1706.25 829.813ZM1788.75 809.188 1871.25 809.188 1871.25 829.813 1788.75 829.813ZM1933.13 809.188 1953.75 809.188 1953.75 829.813 1933.13 829.813ZM2015.63 809.188 2098.12 809.188 2098.12 829.813 2015.63 829.813ZM2160 809.188 2180.62 809.188 2180.62 829.813 2160 829.813ZM2242.5 809.188 2277.55 809.188 2277.55 829.813 2242.5 829.813ZM427.5 850.438C410.414 850.438 396.563 836.586 396.563 819.5 396.563 802.414 410.414 788.562 427.5 788.562 444.586 788.562 458.438 802.414 458.438 819.5 458.438 836.586 444.586 850.438 427.5 850.438ZM2267.24 788.563 2329.11 819.5 2267.24 850.438Z" fill="#FFFF00"/><text font-family="Cambria,Cambria_MSFontService,sans-serif" font-weight="700" font-size="92" transform="matrix(1 0 0 1 717.544 1389)">W</text><text font-family="Cambria,Cambria_MSFontService,sans-serif" font-weight="700" font-size="61" transform="matrix(1 0 0 1 800.571 1411)">start</text><text font-family="Cambria,Cambria_MSFontService,sans-serif" font-weight="700" font-size="92" transform="matrix(1 0 0 1 1777.85 1389)">W</text><text font-family="Cambria,Cambria_MSFontService,sans-serif" font-weight="700" font-size="61" transform="matrix(1 0 0 1 1860.21 1411)">end</text><text font-family="Symbol,Symbol_MSFontService,sans-serif" font-weight="700" font-size="92" transform="matrix(1 0 0 1 286.393 981)">d</text><text font-family="Cambria,Cambria_MSFontService,sans-serif" font-weight="700" font-size="61" transform="matrix(1 0 0 1 331.745 1003)">start</text><text font-family="Symbol,Symbol_MSFontService,sans-serif" font-weight="700" font-size="92" transform="matrix(1 0 0 1 2150.51 962)">d</text><text font-family="Cambria,Cambria_MSFontService,sans-serif" font-weight="700" font-size="61" transform="matrix(1 0 0 1 2195.86 984)">end</text></g></svg>